<svg xmlns="http://www.w3.org/2000/svg" xmlns:xlink="http://www.w3.org/1999/xlink" width="500" zoomAndPan="magnify" viewBox="0 0 375 374.999991" height="500" preserveAspectRatio="xMidYMid meet" version="1.0"><defs><g/><clipPath id="455f7b101c"><path d="M 79.398438 53 L 295.398438 53 L 295.398438 269.210938 L 79.398438 269.210938 Z M 79.398438 53 " clip-rule="nonzero"/></clipPath></defs><path fill="#286181" d="M 253.695312 136.453125 C 253.695312 136.453125 268.527344 140.972656 272.859375 149.195312 C 272.859375 149.195312 270.476562 141.085938 257.410156 134.722656 C 257.476562 134.207031 257.242188 133.554688 256.554688 132.757812 C 253.800781 129.570312 247.867188 129.054688 244.101562 125.5 C 242.4375 123.925781 248.964844 136.378906 253.695312 136.453125 " fill-opacity="1" fill-rule="nonzero"/><path fill="#286181" d="M 102.164062 197.160156 C 116.597656 226.113281 149.9375 231.945312 149.9375 231.945312 C 149.9375 231.945312 132.625 219.304688 128.511719 192.210938 C 125.214844 174.386719 124.417969 138.480469 142.289062 122.476562 C 142.007812 122.496094 141.726562 122.523438 141.441406 122.554688 C 125.054688 124.300781 112.316406 138.003906 110.117188 155.726562 C 109.835938 157.980469 109.726562 159.3125 109.726562 159.3125 C 108.507812 152.703125 108.324219 146.308594 108.816406 140.289062 C 96.886719 153.585938 90.445312 173.644531 102.164062 197.160156 " fill-opacity="1" fill-rule="nonzero"/><g clip-path="url(#455f7b101c)"><path fill="#286181" d="M 197.125 109.53125 C 197.125 109.53125 211.082031 103.941406 221.796875 111.167969 C 233.917969 109.1875 244.792969 113.953125 251.214844 117.914062 C 261.847656 124.46875 273.472656 144.808594 288.910156 150.726562 C 292.058594 151.929688 292.296875 157.011719 290.324219 159.75 C 288.542969 162.214844 279.140625 168.589844 270.417969 166.136719 C 268.539062 165.605469 265.691406 165.285156 262.632812 164.214844 C 262.621094 164.207031 226.011719 150.527344 214.003906 183.203125 C 214.003906 183.203125 220.21875 174.800781 228.707031 171.523438 C 212.925781 190.664062 206.003906 219.6875 223.6875 246.949219 C 185.539062 244.765625 154.566406 215.332031 149.9375 177.839844 C 159.265625 157.800781 178.832031 135.910156 212.050781 120.367188 C 211.257812 120.6875 206.691406 121.75 197.125 109.53125 Z M 239.527344 243.726562 C 239.527344 243.726562 224.734375 231.863281 224.734375 212.964844 C 224.734375 212.964844 219.289062 219.667969 219.179688 231.191406 C 219.179688 231.191406 210.449219 198.484375 240.878906 164.148438 C 232.289062 179.511719 219.847656 206.042969 239.527344 243.726562 Z M 123.535156 239.488281 C 130.675781 242.859375 138.527344 245.515625 147.058594 246.949219 C 147.058594 246.949219 100.558594 228.257812 89.953125 185.097656 C 81.34375 150.050781 97.957031 125.550781 120.144531 111.832031 C 117.253906 119.652344 115.214844 128.199219 114.613281 137.367188 C 114.613281 137.367188 115.253906 135.636719 116.472656 132.738281 C 126.066406 109.945312 149.574219 95.957031 174.089844 99.019531 C 174.515625 99.074219 174.9375 99.128906 175.355469 99.191406 C 143.539062 114.558594 131.757812 162.460938 130.140625 187.195312 C 130.140625 187.195312 135.976562 171.382812 146.089844 155.265625 C 145.488281 159.300781 145.152344 163.574219 145.152344 168.101562 C 145.152344 208.570312 177.707031 246.777344 218.601562 250.863281 C 228.550781 251.855469 238.746094 250.390625 247.972656 246.535156 C 278.539062 233.765625 294.421875 195.570312 295.257812 164.273438 C 295.308594 162.304688 295.308594 160.335938 295.257812 158.367188 C 293.671875 99.472656 244.496094 52.480469 185.648438 53.496094 C 127.195312 54.503906 80.082031 102.097656 79.785156 160.777344 C 79.480469 219.894531 127.414062 268.625 186.472656 269.195312 C 189.621094 269.226562 192.738281 269.125 195.816406 268.890625 C 161.878906 266.832031 141.046875 254.773438 123.535156 239.488281 " fill-opacity="1" fill-rule="nonzero"/></g><g fill="#050a30" fill-opacity="1"><g transform="translate(2.62334, 352.995285)"><g><path d="M 1.921875 -40.8125 L 1.921875 -50.078125 L 41.453125 -50.078125 L 41.453125 -40.8125 L 27.75 -40.8125 L 27.75 0 L 15.546875 0 L 15.546875 -40.8125 Z M 1.921875 -40.8125 "/></g></g></g><g fill="#050a30" fill-opacity="1"><g transform="translate(48.923083, 352.995285)"><g><path d="M 35.671875 -50.21875 L 35.671875 -40.953125 L 17.546875 -40.953125 L 17.546875 -30.171875 L 33.53125 -30.171875 L 33.53125 -20.90625 L 17.546875 -20.90625 L 17.546875 -9.28125 L 35.671875 -9.28125 L 35.671875 0 L 5.34375 0 L 5.34375 -50.21875 Z M 35.671875 -50.21875 "/></g></g></g><g fill="#050a30" fill-opacity="1"><g transform="translate(92.654588, 352.995285)"><g><path d="M 37.171875 0 L 34.390625 -8.421875 L 16.40625 -8.421875 L 13.625 0 L 0.640625 0 L 18.046875 -50.21875 L 32.890625 -50.21875 L 50.21875 0 Z M 19.484375 -17.6875 L 31.3125 -17.6875 L 25.390625 -35.53125 Z M 19.484375 -17.6875 "/></g></g></g><g fill="#050a30" fill-opacity="1"><g transform="translate(146.444964, 352.995285)"><g><path d="M 62.0625 -50.078125 L 62.0625 0 L 49.875 0 L 49.875 -28.25 L 38.234375 0 L 29.171875 0 L 17.546875 -28.25 L 17.546875 0 L 5.34375 0 L 5.34375 -50.078125 L 19.328125 -50.078125 L 33.75 -15.546875 L 48.078125 -50.078125 Z M 62.0625 -50.078125 "/></g></g></g><g fill="#050a30" fill-opacity="1"><g transform="translate(216.786102, 352.995285)"><g><path d="M 5.34375 0 L 5.34375 -50.078125 L 37.953125 -50.078125 L 37.953125 -40.8125 L 17.546875 -40.8125 L 17.546875 -30.03125 L 32.8125 -30.03125 L 32.8125 -20.765625 L 17.546875 -20.765625 L 17.546875 0 Z M 5.34375 0 "/></g></g></g><g fill="#050a30" fill-opacity="1"><g transform="translate(260.731629, 352.995285)"><g><path d="M 37.703125 -14.6875 C 40.109375 -17.3125 41.3125 -20.8125 41.3125 -25.1875 C 41.3125 -29.5625 40.109375 -33.054688 37.703125 -35.671875 C 35.304688 -38.285156 32.097656 -39.59375 28.078125 -39.59375 C 24.054688 -39.59375 20.84375 -38.285156 18.4375 -35.671875 C 16.039062 -33.054688 14.84375 -29.5625 14.84375 -25.1875 C 14.84375 -20.8125 16.039062 -17.3125 18.4375 -14.6875 C 20.84375 -12.070312 24.054688 -10.765625 28.078125 -10.765625 C 32.097656 -10.765625 35.304688 -12.070312 37.703125 -14.6875 Z M 9.875 -6.78125 C 4.90625 -11.632812 2.421875 -17.769531 2.421875 -25.1875 C 2.421875 -32.601562 4.90625 -38.722656 9.875 -43.546875 C 14.851562 -48.378906 20.941406 -50.796875 28.140625 -50.796875 C 35.347656 -50.796875 41.410156 -48.378906 46.328125 -43.546875 C 51.253906 -38.722656 53.71875 -32.601562 53.71875 -25.1875 C 53.71875 -17.769531 51.242188 -11.632812 46.296875 -6.78125 C 41.347656 -1.925781 35.285156 0.5 28.109375 0.5 C 20.929688 0.5 14.851562 -1.925781 9.875 -6.78125 Z M 9.875 -6.78125 "/></g></g></g><g fill="#050a30" fill-opacity="1"><g transform="translate(319.872458, 352.995285)"><g><path d="M 49.015625 -50.078125 L 33.171875 -24.96875 L 48.9375 0 L 35.09375 0 L 25.890625 -14.546875 L 17.40625 0 L 3.5625 0 L 19.328125 -25.046875 L 3.5625 -50.078125 L 17.40625 -50.078125 L 26.609375 -35.453125 L 35.171875 -50.078125 Z M 49.015625 -50.078125 "/></g></g></g></svg>